<svg height="96.308334mm" viewBox="0 0 274.1928 364" width="72.546844mm" xmlns="http://www.w3.org/2000/svg" xmlns:xlink="http://www.w3.org/1999/xlink"><linearGradient id="a" gradientUnits="userSpaceOnUse" x1="325.84980491875" x2="398.194308625" y1="282.62301616387" y2="282.62301616387"><stop offset="0" stop-color="#fdb827"/><stop offset=".0625" stop-color="#fdb827"/><stop offset=".078125" stop-color="#fdb827"/><stop offset=".09375" stop-color="#fdb727"/><stop offset=".109375" stop-color="#fdb727"/><stop offset=".117188" stop-color="#fdb626"/><stop offset=".125" stop-color="#fdb526"/><stop offset=".140625" stop-color="#fdb526"/><stop offset=".15625" stop-color="#fcb526"/><stop offset=".171875" stop-color="#fcb526"/><stop offset=".179688" stop-color="#fcb526"/><stop offset=".1875" stop-color="#fcb426"/><stop offset=".195313" stop-color="#fcb325"/><stop offset=".203125" stop-color="#fcb325"/><stop offset=".21875" stop-color="#fcb225"/><stop offset=".25" stop-color="#fcb225"/><stop offset=".257813" stop-color="#fcb126"/><stop offset=".261719" stop-color="#fcb125"/><stop offset=".265625" stop-color="#fcb025"/><stop offset=".28125" stop-color="#fcb024"/><stop offset=".296875" stop-color="#fcb024"/><stop offset=".3125" stop-color="#fcaf25"/><stop offset=".328125" stop-color="#fbaf25"/><stop offset=".335938" stop-color="#fbae24"/><stop offset=".34375" stop-color="#fbad24"/><stop offset=".351563" stop-color="#fbad24"/><stop offset=".359375" stop-color="#fbac24"/><stop offset=".375" stop-color="#fbac24"/><stop offset=".390625" stop-color="#fbac23"/><stop offset=".398438" stop-color="#fbac23"/><stop offset=".40625" stop-color="#fbab23"/><stop offset=".421875" stop-color="#fbaa23"/><stop offset=".4375" stop-color="#fbaa23"/><stop offset=".445313" stop-color="#fba922"/><stop offset=".453125" stop-color="#fba922"/><stop offset=".460938" stop-color="#faa822"/><stop offset=".46875" stop-color="#faa822"/><stop offset=".484375" stop-color="#faa722"/><stop offset=".5" stop-color="#faa722"/><stop offset=".507813" stop-color="#faa622"/><stop offset=".515625" stop-color="#faa622"/><stop offset=".53125" stop-color="#faa522"/><stop offset=".546875" stop-color="#faa522"/><stop offset=".554688" stop-color="#faa422"/><stop offset=".5625" stop-color="#faa321"/><stop offset=".570313" stop-color="#faa321"/><stop offset=".578125" stop-color="#faa221"/><stop offset=".59375" stop-color="#faa221"/><stop offset=".601563" stop-color="#faa221"/><stop offset=".609375" stop-color="#f9a120"/><stop offset=".617188" stop-color="#f9a120"/><stop offset=".625" stop-color="#f9a020"/><stop offset=".640625" stop-color="#f99f21"/><stop offset=".65625" stop-color="#f99f21"/><stop offset=".664063" stop-color="#f99f21"/><stop offset=".671875" stop-color="#f99e20"/><stop offset=".6875" stop-color="#f99d20"/><stop offset=".703125" stop-color="#f99d20"/><stop offset=".710938" stop-color="#f99c1f"/><stop offset=".71875" stop-color="#f99c1f"/><stop offset=".726563" stop-color="#f99b1f"/><stop offset=".734375" stop-color="#f99b1f"/><stop offset=".742188" stop-color="#f89a20"/><stop offset=".75" stop-color="#f89a20"/><stop offset=".757813" stop-color="#f89920"/><stop offset=".765625" stop-color="#f89920"/><stop offset=".78125" stop-color="#f8981f"/><stop offset=".796875" stop-color="#f8981f"/><stop offset=".804688" stop-color="#f8971f"/><stop offset=".8125" stop-color="#f8961f"/><stop offset=".820313" stop-color="#f8961f"/><stop offset=".828125" stop-color="#f8951f"/><stop offset=".835938" stop-color="#f8951f"/><stop offset=".84375" stop-color="#f7941f"/><stop offset=".859375" stop-color="#f7931e"/><stop offset=".875" stop-color="#f7931e"/><stop offset=".882813" stop-color="#f7931e"/><stop offset=".890625" stop-color="#f7921e"/><stop offset=".898438" stop-color="#f7921e"/><stop offset=".90625" stop-color="#f7911e"/><stop offset=".9375" stop-color="#f7901e"/><stop offset="1" stop-color="#f7901e"/></linearGradient><linearGradient id="b" gradientUnits="userSpaceOnUse" x1="138.94584420625" x2="228.8806905175" y1="275.51428201763" y2="275.51428201763"><stop offset="0" stop-color="#fdb827"/><stop offset=".0625" stop-color="#fdb827"/><stop offset=".09375" stop-color="#fdb827"/><stop offset=".109375" stop-color="#fdb727"/><stop offset=".125" stop-color="#fdb727"/><stop offset=".132813" stop-color="#fdb626"/><stop offset=".140625" stop-color="#fdb526"/><stop offset=".15625" stop-color="#fdb526"/><stop offset=".171875" stop-color="#fcb526"/><stop offset=".1875" stop-color="#fcb526"/><stop offset=".195313" stop-color="#fcb526"/><stop offset=".203125" stop-color="#fcb426"/><stop offset=".210938" stop-color="#fcb426"/><stop offset=".21875" stop-color="#fcb325"/><stop offset=".25" stop-color="#fcb225"/><stop offset=".265625" stop-color="#fcb225"/><stop offset=".273438" stop-color="#fcb225"/><stop offset=".28125" stop-color="#fcb126"/><stop offset=".285156" stop-color="#fcb025"/><stop offset=".289063" stop-color="#fcb024"/><stop offset=".296875" stop-color="#fcb024"/><stop offset=".3125" stop-color="#fcb024"/><stop offset=".328125" stop-color="#fcaf25"/><stop offset=".34375" stop-color="#fbaf25"/><stop offset=".351563" stop-color="#fbae24"/><stop offset=".359375" stop-color="#fbae24"/><stop offset=".367188" stop-color="#fbad24"/><stop offset=".375" stop-color="#fbad24"/><stop offset=".40625" stop-color="#fbac24"/><stop offset=".421875" stop-color="#fbac23"/><stop offset=".429688" stop-color="#fbab23"/><stop offset=".4375" stop-color="#fbab23"/><stop offset=".453125" stop-color="#fbaa23"/><stop offset=".46875" stop-color="#fbaa23"/><stop offset=".476563" stop-color="#fba922"/><stop offset=".484375" stop-color="#faa822"/><stop offset=".492187" stop-color="#faa822"/><stop offset=".5" stop-color="#faa722"/><stop offset=".515625" stop-color="#faa722"/><stop offset=".53125" stop-color="#faa722"/><stop offset=".539063" stop-color="#faa622"/><stop offset=".546875" stop-color="#faa522"/><stop offset=".5625" stop-color="#faa522"/><stop offset=".578125" stop-color="#faa422"/><stop offset=".585938" stop-color="#faa422"/><stop offset=".59375" stop-color="#faa321"/><stop offset=".609375" stop-color="#faa221"/><stop offset=".625" stop-color="#faa221"/><stop offset=".632813" stop-color="#faa221"/><stop offset=".640625" stop-color="#f9a120"/><stop offset=".648438" stop-color="#f9a120"/><stop offset=".65625" stop-color="#f9a020"/><stop offset=".671875" stop-color="#f99f21"/><stop offset=".6875" stop-color="#f99f21"/><stop offset=".695313" stop-color="#f99e20"/><stop offset=".703125" stop-color="#f99e20"/><stop offset=".71875" stop-color="#f99d20"/><stop offset=".734375" stop-color="#f99d20"/><stop offset=".742187" stop-color="#f99c1f"/><stop offset=".75" stop-color="#f99c1f"/><stop offset=".757813" stop-color="#f99b1f"/><stop offset=".765625" stop-color="#f99b1f"/><stop offset=".773438" stop-color="#f89a20"/><stop offset=".78125" stop-color="#f89a20"/><stop offset=".789063" stop-color="#f89920"/><stop offset=".796875" stop-color="#f89920"/><stop offset=".8125" stop-color="#f8981f"/><stop offset=".828125" stop-color="#f8981f"/><stop offset=".835938" stop-color="#f8971f"/><stop offset=".84375" stop-color="#f8971f"/><stop offset=".851563" stop-color="#f8961f"/><stop offset=".859375" stop-color="#f8961f"/><stop offset=".867187" stop-color="#f8951f"/><stop offset=".875" stop-color="#f8951f"/><stop offset=".882813" stop-color="#f7941f"/><stop offset=".890625" stop-color="#f7931e"/><stop offset=".90625" stop-color="#f7931e"/><stop offset=".921875" stop-color="#f7931e"/><stop offset=".929688" stop-color="#f7921e"/><stop offset=".9375" stop-color="#f7911e"/><stop offset=".945313" stop-color="#f7911e"/><stop offset=".953125" stop-color="#f7901e"/><stop offset=".96875" stop-color="#f7901e"/><stop offset="1" stop-color="#f7901e"/></linearGradient><linearGradient id="c" gradientUnits="userSpaceOnUse" x1="190.6349240275" x2="339.7118803075" y1="432.98972453812" y2="432.98972453812"><stop offset="0" stop-color="#f7901e"/><stop offset=".0625" stop-color="#f7901e"/><stop offset=".078125" stop-color="#f7911e"/><stop offset=".085937" stop-color="#f7921e"/><stop offset=".09375" stop-color="#f7921e"/><stop offset=".101562" stop-color="#f7931e"/><stop offset=".109375" stop-color="#f7931e"/><stop offset=".125" stop-color="#f7931e"/><stop offset=".132812" stop-color="#f7941f"/><stop offset=".140625" stop-color="#f7941f"/><stop offset=".148437" stop-color="#f8951f"/><stop offset=".15625" stop-color="#f8951f"/><stop offset=".164062" stop-color="#f8961f"/><stop offset=".171875" stop-color="#f8961f"/><stop offset=".179687" stop-color="#f8971f"/><stop offset=".1875" stop-color="#f8981f"/><stop offset=".203125" stop-color="#f8981f"/><stop offset=".21875" stop-color="#f89920"/><stop offset=".226562" stop-color="#f89920"/><stop offset=".234375" stop-color="#f89a20"/><stop offset=".242188" stop-color="#f89a20"/><stop offset=".25" stop-color="#f99b1f"/><stop offset=".257812" stop-color="#f99b1f"/><stop offset=".265625" stop-color="#f99c1f"/><stop offset=".273437" stop-color="#f99c1f"/><stop offset=".28125" stop-color="#f99d20"/><stop offset=".296875" stop-color="#f99d20"/><stop offset=".3125" stop-color="#f99e20"/><stop offset=".320312" stop-color="#f99f21"/><stop offset=".328125" stop-color="#f99f21"/><stop offset=".34375" stop-color="#f99f21"/><stop offset=".359375" stop-color="#f9a020"/><stop offset=".367188" stop-color="#f9a120"/><stop offset=".375" stop-color="#faa221"/><stop offset=".390625" stop-color="#faa221"/><stop offset=".40625" stop-color="#faa221"/><stop offset=".414062" stop-color="#faa321"/><stop offset=".421875" stop-color="#faa321"/><stop offset=".429687" stop-color="#faa422"/><stop offset=".4375" stop-color="#faa522"/><stop offset=".453125" stop-color="#faa522"/><stop offset=".46875" stop-color="#faa622"/><stop offset=".476562" stop-color="#faa622"/><stop offset=".484375" stop-color="#faa722"/><stop offset=".5" stop-color="#faa722"/><stop offset=".515625" stop-color="#faa822"/><stop offset=".523437" stop-color="#faa822"/><stop offset=".53125" stop-color="#fba922"/><stop offset=".539062" stop-color="#fba922"/><stop offset=".546875" stop-color="#fbaa23"/><stop offset=".5625" stop-color="#fbaa23"/><stop offset=".578125" stop-color="#fbab23"/><stop offset=".585937" stop-color="#fbac23"/><stop offset=".59375" stop-color="#fbac23"/><stop offset=".609375" stop-color="#fbac24"/><stop offset=".625" stop-color="#fbac24"/><stop offset=".632812" stop-color="#fbad24"/><stop offset=".640625" stop-color="#fbad24"/><stop offset=".648437" stop-color="#fbae24"/><stop offset=".65625" stop-color="#fbaf25"/><stop offset=".671875" stop-color="#fcaf25"/><stop offset=".6875" stop-color="#fcb024"/><stop offset=".703125" stop-color="#fcb024"/><stop offset=".71875" stop-color="#fcb025"/><stop offset=".722656" stop-color="#fcb125"/><stop offset=".726562" stop-color="#fcb126"/><stop offset=".734375" stop-color="#fcb225"/><stop offset=".75" stop-color="#fcb225"/><stop offset=".78125" stop-color="#fcb325"/><stop offset=".789062" stop-color="#fcb325"/><stop offset=".796875" stop-color="#fcb426"/><stop offset=".804687" stop-color="#fcb426"/><stop offset=".8125" stop-color="#fcb526"/><stop offset=".84375" stop-color="#fdb526"/><stop offset=".859375" stop-color="#fdb526"/><stop offset=".867187" stop-color="#fdb626"/><stop offset=".875" stop-color="#fdb727"/><stop offset=".890625" stop-color="#fdb727"/><stop offset=".90625" stop-color="#fdb827"/><stop offset=".9375" stop-color="#fdb827"/><stop offset="1" stop-color="#fdb827"/></linearGradient><g transform="translate(-131.47503 -203.71429)"><g fill="#02513d"><path d="m151.65585 496.06666v7.60172h11.41541v5.79183h-11.41541v11.81631h-7.23988v-31.01459h19.37917v5.80473zm0 0"/><path d="m187.42797 495.97616c-5.17106 0-9.07542 3.73626-9.07542 9.65731 0 5.93403 3.90436 9.70901 9.07542 9.70901 5.17141 0 9.07552-3.77498 9.07552-9.70901 0-5.88227-3.90411-9.65731-9.07552-9.65731m0 25.84335c-9.21765 0-16.44436-5.9728-16.44436-16.00502 0-10.01935 7.22671-16.04383 16.44436-16.04383 9.21776 0 16.4447 6.02448 16.4447 16.04383 0 10.03222-7.22694 16.00502-16.4447 16.00502"/><path d="m228.24196 495.97616c-5.17117 0-9.07553 3.73626-9.07553 9.65731 0 5.93403 3.90436 9.70901 9.07553 9.70901 5.17165 0 9.07577-3.77498 9.07577-9.70901 0-5.88227-3.90412-9.65731-9.07577-9.65731m0 25.84335c-9.21776 0-16.45729-5.9728-16.45729-16.00502 0-10.01935 7.23953-16.04383 16.45729-16.04383 9.20506 0 16.44494 6.02448 16.44494 16.04383 0 10.03222-7.23988 16.00502-16.44494 16.00502"/><path d="m264.73831 496.02788v25.24864h-7.29152v-25.24864h-7.98942v-5.75305h23.27036v5.75305zm0 0"/><path d="m292.3269 507.84422h-4.00776v7.91196h4.00776c2.702 0 5.44271-.72397 5.44271-3.956 0-3.24495-2.74071-3.95596-5.44271-3.95596m-.99553-12.17833h-3.01223v7.13633h2.84435c2.50788 0 4.93835-.58176 4.93835-3.63279 0-2.92177-2.34-3.50354-4.77047-3.50354m2.43047 25.61063h-12.66941v-31.00169h10.56224c2.83105 0 5.57199.2196 7.64047 1.29284 2.0687 1.08597 3.95623 3.10277 3.95623 6.52873 0 3.40007-2.21118 6.01154-4.538 6.82604v.0902c3.86576.94379 6.42541 3.54232 6.42541 7.36901 0 6.64506-5.57212 8.8946-11.37694 8.8946"/><path d="m326.75454 498.22567-3.86552 11.14404h7.73105zm7.73106 23.05085-2.2107-6.24431h-11.05353l-2.19777 6.24431h-7.55l11.68706-31.05338h7.54988l11.67424 31.05338zm0 0"/><path d="m350.38701 521.27652v-31.00169h7.23989v24.97718h10.74317v6.02451zm0 0"/><path d="m377.04525 521.27652v-31.00169h7.23953v24.97718h10.73035v6.02451zm0 0"/><path d="m146.75597 544.12045-3.86553 11.15698h7.73106zm7.73106 23.06382-2.21071-6.25725h-11.05353l-2.19776 6.25725h-7.55l11.68706-31.05341h7.54988l11.67388 31.05341zm0 0"/><path d="m192.09514 563.99098c-2.15894 2.33996-5.52047 3.68453-10.01929 3.68453-4.53777 0-7.86035-1.34457-10.07106-3.68453-2.146-2.39167-2.92165-5.39103-2.92165-9.76074v-18.0606h7.33v18.0606c0 2.21069.18106 3.91725 1.21541 5.17125.98236 1.17647 2.43059 1.93923 4.4473 1.93923 2.0167 0 3.46447-.76276 4.44717-1.93923 1.03436-1.254 1.21542-2.96056 1.21542-5.17125v-18.0606h7.33v18.0606c0 4.36971-.77553 7.36907-2.9733 9.76074"/><path d="m214.70608 567.71429c-4.49882 0-8.49341-2.32706-11.01447-4.66704l3.59388-5.30056c2.24953 2.32709 5.71436 3.90431 8.09318 3.90431 2.34 0 4.1367-1.12473 4.1367-3.19324 0-2.1073-2.30105-2.92177-3.64552-3.41301-1.34447-.4913-3.68447-1.30575-4.71883-1.75824-.7627-.34908-2.34-.94379-3.68447-2.23658-1.34447-1.26696-2.41764-3.06398-2.41764-5.98575 0-2.96053 1.43505-5.3005 3.23211-6.78728 1.74518-1.47378 4.57659-2.46922 8.17047-2.46922 3.594 0 7.73106 1.70647 9.85118 3.82673l-3.10282 5.08071c-1.79683-1.80993-4.58942-3.15442-6.92942-3.15442-2.32682 0-4.03341.90494-4.03341 2.79246 0 1.88749 1.74518 2.59854 3.14165 3.14155 1.34447.54295 3.64553 1.34453 4.62823 1.75821 3.95577 1.435 6.73553 3.99481 6.73553 8.49377 0 6.69677-6.01164 9.9676-12.03635 9.9676"/><path d="m248.22914 541.92266v25.26161h-7.27871v-25.26161h-8.00258v-5.75302h23.28352v5.75302zm0 0"/><path d="m274.61537 541.79338h-2.88306v7.95078h2.88306c2.68894 0 5.30059-.81445 5.30059-4.00768 0-3.23205-2.61165-3.9431-5.30059-3.9431m5.97283 25.39089-6.516-11.86805h-2.28824v11.86805h-7.27835v-31.01463h11.14388c5.93412 0 11.59647 2.52098 11.59647 9.29534 0 5.89524-3.77494 8.18349-6.07612 8.90747l7.87318 12.81182zm0 0"/><path d="m309.21102 544.12045-3.86553 11.15698h7.74411zm7.74411 23.06382-2.21082-6.25725h-11.05341l-2.21094 6.25725h-7.5373l11.67447-31.05341h7.54989l11.68705 31.05341zm0 0"/><path d="m332.72725 567.18427v-31.01463h7.22671v24.99009h10.74317v6.02454zm0 0"/><path d="m359.42372 536.16964h7.27859v31.00169h-7.27859zm0 0"/><path d="m390.02478 544.12045-3.86553 11.15698h7.73094zm7.73094 23.06382-2.19777-6.25725h-11.06647l-2.19776 6.25725h-7.54988l11.68694-31.05341h7.55l11.68705 31.05341zm0 0"/></g><path d="m325.86243 214.97013c1.71941 4.02062 17.78917 29.91568 25.55894 61.344 6.438 26.06312 7.48517 42.49476 5.01611 53.32856 15.94059 17.42708 33.92341 29.02365 40.15482 13.03153 0-.0146 0-.0262 0-.0388.14306-.38784.2833-.78862.42671-1.21525 3.37424-16.89707-.54294-41.62858-11.41553-65.05435-19.74153-42.50775-50.88517-58.60328-59.75388-61.39574zm0 0" fill="url(#a)" stroke-width="3.30958"/><path d="m397.03183 341.4202c-.14306.42663-.28329.82738-.4267 1.21524v.0388c-6.21824 15.97918-24.21412 4.39555-40.15482-13.03153-8.80412-9.63148-16.98753-21.05996-22.19753-30.60092-23.64565-43.29631-25.06741-90.83306-25.06741-90.83306-14.18271-4.24043-31.07976-5.31347-43.02517-3.91721 8.24811 104.14904 50.96282 146.37233 74.5694 157.95593 20.71082 10.14864 50.49741 7.44662 56.31506-20.82721" fill="#02513d"/><path d="m215.21043 213.08261s-.0294 0-.0377.0146c-.41341.0646-.84011.12937-1.2667.23274-16.32823 5.52033-35.79788 21.27971-50.65247 42.41724-26.94235 38.33189-25.32623 73.3413-23.30952 82.41686 2.62435-3.4906 17.02635-30.36821 40.36188-52.79851 19.35317-18.60359 33.06999-27.73084 43.6967-31.0017 6.73553-21.25383 8.02835-41.49931-6.11494-41.49931-.84047 0-1.73224.0774-2.67612.21989" fill="url(#b)" stroke-width="3.30958"/><path d="m213.90479 213.32834c.43953-.10341.85329-.1682 1.26706-.23274 0-.0146.0294-.0146.0376-.0146 16.96188-2.61145 15.91458 18.75874 8.79129 41.26661-3.94318 12.44979-9.748 25.23574-15.41023 34.51816-25.68812 42.13276-66.16624 67.12287-66.16624 67.12287 3.41295 14.40193 10.93718 29.56664 18.12494 39.211 86.10176-59.22354 101.31811-117.30962 99.54705-143.52789-1.55152-23.01208-18.79752-47.44624-46.19246-38.34483" fill="#02513d"/><path d="m193.71114 434.99404c0 .0146.0294.0146.0294.0262.25988.32337.54294.6464.8273.9696 12.95411 11.37679 36.35387 20.36184 62.08105 22.65012 46.68365 4.16283 76.19835-14.73808 83.06317-21.03409-4.34376-.51715-34.82835.45251-65.92046-8.54549-25.80459-7.45954-40.56871-14.76395-48.71318-22.31396-23.07682 5.08079-42.10705 14.86736-31.36353 28.24798" fill="url(#c)" stroke-width="3.30958"/><path d="m194.56444 435.9896c-.2833-.32333-.56883-.64639-.8273-.9696 0-.0146 0-.0146-.0294-.0262-10.74353-13.38063 8.28671-23.1672 31.36353-28.24798 12.74729-2.80537 26.73553-4.17581 37.59494-3.91722 49.34682 1.17647 91.23364 23.72315 91.23364 23.72315 10.76917-10.16154 20.14223-24.26614 24.89988-35.30675-94.34988-44.92459-152.28093-29.06178-174.11634-14.41417-19.14647 12.85054-31.68683 39.99963-10.12271 59.15911" fill="#02513d"/></g></svg>