<svg fill-rule="evenodd" height="300" viewBox="0 0 215 299.99925" width="215" xmlns="http://www.w3.org/2000/svg" xmlns:xlink="http://www.w3.org/1999/xlink"><linearGradient id="a" gradientUnits="userSpaceOnUse" x1="79.419701" x2="139.032" y1="26.546499" y2="56.352798"><stop offset="0" stop-color="#c0a062"/><stop offset=".188235" stop-color="#f8c300"/><stop offset=".588235" stop-color="#fff974"/><stop offset=".839216" stop-color="#f8c300"/><stop offset="1" stop-color="#c0a062"/></linearGradient><linearGradient id="b" gradientUnits="userSpaceOnUse" x1="70.2827" x2="140.882" y1="214.68401" y2="285.28299"><stop offset="0" stop-color="#184c8b"/><stop offset=".341176" stop-color="#0092ce"/><stop offset=".568627" stop-color="#0060a0"/><stop offset=".819608" stop-color="#63b5e4"/><stop offset="1" stop-color="#0066a5"/></linearGradient><linearGradient id="c" gradientUnits="userSpaceOnUse" x1="26.906637" x2="272.91418" y1="274.54971" y2="274.54971"><stop offset="0" stop-color="#00923f"/><stop offset=".231373" stop-color="#b8db7c"/><stop offset=".529412" stop-color="#00923f"/><stop offset=".788235" stop-color="#99ae6a"/><stop offset="1" stop-color="#00923f"/></linearGradient><linearGradient id="d" gradientUnits="userSpaceOnUse" x1="79.92443387725" x2="168.16800181405" xlink:href="#b" y1="189.0285583338" y2="189.0285583338"/><linearGradient id="e" gradientUnits="userSpaceOnUse" x1="57.3549679973" x2="109.40792860834" xlink:href="#b" y1="163.93410069009" y2="215.9868253647"/><linearGradient id="f" gradientUnits="userSpaceOnUse" x1="47.86641473906" x2="184.63110088259" y1="129.87740573541" y2="198.25916597044"><stop offset="0" stop-color="#c0a062"/><stop offset=".141176" stop-color="#f8c300"/><stop offset=".478431" stop-color="#fff974"/><stop offset=".678431" stop-color="#f8c300"/><stop offset=".8" stop-color="#f8c300"/><stop offset="1" stop-color="#c0a062"/></linearGradient><radialGradient id="g" cx="243.56434406107" cy="27.15503053413" gradientUnits="userSpaceOnUse" r="268.39835786439"><stop offset="0" stop-color="#094876"/><stop offset=".231373" stop-color="#1676b5"/><stop offset=".4" stop-color="#004d8c"/><stop offset=".541176" stop-color="#0a3f65"/><stop offset=".8" stop-color="#135f90"/><stop offset="1" stop-color="#0c3d64"/></radialGradient><g transform="matrix(1.0703002 0 0 1.0703002 -16.698418 -10.181756)"><path d="m121.40161 258.6235c1.04064.24383 1.39419.34136 2.22235.546-.12975.71408-.19071.85951-.33004 1.46735-.80813-.0853-1.13034-.12366-2.03426-.18374.0679-.65399.10537-.9074.14194-1.82961zm-11.0534-.0836v1.16343c-.77243.14543-.93005.18026-1.56837.3013-.0688-.45892-.0688-.519-.16893-1.01626.69666-.17067.89782-.21857 1.7373-.44847zm-62.837985-90.40937c.122787.0253.334398.0253.434544.0253-.0627.0723-.0627.15762-.100146.27867-.12627-.12105-.200291-.18375-.334398-.30393zm2.721335-101.672386v60.579186c-1.272279.0261-2.555884.56952-3.501599 1.6598 0 0-.356169.4598-.852541 1.05457-.896957-1.67113-2.466185-2.62904-4.215683-2.62904-1.794776.0375-3.406679 1.0537-4.266188 2.70131 0 0-.175037.36401-.406677.7733-.770686-.96749-1.716401-2.2032-1.716401-2.2032-1.277507-1.21045-2.927728-1.68157-4.509151-1.27141-1.720758.39972-3.040063 1.76866-3.562559 3.70712l-2.246734 8.42787c-.611321 2.78665-1.52743 7.90977-1.52743 10.08768 0 1.8897 1.133822 5.82584 2.76575 9.44763-.841217 1.19914-1.20871 2.64122-1.439478 3.7315l-.192453.91785c0 .0253-.50508 2.11002-.50508 2.11002l-1.811321 8.22062c-.797679 3.8656-1.33759 6.74717-1.33759 9.32745 0 1.09114.09231 2.13092.327431 3.19681.430189 1.95066 1.203482 3.90044 2.192749 5.83977-.734108.65313-1.408128 1.62061-1.693758 3.19507-.04267.16982-2.54717 15.6967-2.54717 15.6967-.106241 1.018-.123658 1.96111-.123658 2.92947 0 2.86067.348331 5.45052 1.022349 7.1347 1.169523 2.93034 2.913793 5.7884 5.124827 8.47837 2.801458 3.37795 4.869669 4.94283 7.204364 6.30741.0566.0636.130624.17069.13672.21945-1.869671-.27692-3.051381-.38752-3.487664-.38752-2.017707 0-3.737595.95791-4.459516 2.55676-.658346 1.50217-.297823 3.25689.954429 4.52917-.137591-.12104.70363 1.34456.70363 1.34456l1.30102 2.39652 6.720185 11.19017c3.068795 4.61365 5.231064 7.35327 8.641245 9.3753 3.458932 2.01075 8.021176 3.51205 13.129495 4.26183 3.660089.52163 6.283894.46241 8.194514.24296-.384906.58171-.958779 1.49086-.958779 2.8241 0 .33701 0 .66444.08708 1.00406.154136.82293.827289 2.31118 2.865028 3.18723 1.905371.78548 8.001194 2.68651 12.515543 3.64267l.829027.21771c2.852832.60784 5.829325 1.1878 9.589562.89782-.08534.51902-.19158.90741-.19158.90741 1.24354 4.24964 6.793333 3.25689 8.885071 2.87025 4.048481-.66619 8.357311-1.71902 11.957331-4.67548 1.85487-1.46386 2.93208-3.08883 3.67403-4.9167.66618.18027 1.30102.43542 2.11698.43542.87257.0235 1.85661-.0967 2.86503-.31524.0192.0862 0 .19593.0192.25515 1.11989 2.44616 3.30044 4.56489 6.50074 6.3466 2.97649 1.6119 5.91031 2.373 7.38547 2.6656 6.65661 1.30537 8.49931.0217 9.19769-.46154l1.71988-2.88157c0-.0261.0114-.0731.0114-.12279.47373.0496.94746.1106 1.45689.1106 3.58781 0 7.32367-.95617 11.4845-2.01075.0244-.0487 9.46592-2.8598 9.46592-2.8598 1.65545-.59303 2.8389-2.00987 3.08622-3.63223.0375-.22989.0496-.46066.0496-.69056 0-1.10247-.51989-2.07083-1.30537-2.94166 2.29202.21423 4.66851.36314 7.98114-.0496 5.93121-.70275 12.10796-2.89289 15.74455-5.65603 2.9138-2.17794 6.15241-7.13469 9.19157-12.22209l.33527-.55646s4.8958-8.57157 6.00263-10.48826c.4624-.59303.9849-1.44122.9849-2.6508 0-.2299-.0261-.43455-.0749-.6897-.2238-1.40291-1.22091-2.55414-2.6778-3.1733-.75849-.24296-1.43251-.41278-5.54195.182 1.81829-1.06589 6.20291-3.96139 9.98925-10.1634 2.65168-4.30973 3.71147-7.42293 3.71147-10.93588v-.54339l-1.4447-11.76055-1.56924-8.04123c-.24905-1.0659-.87082-1.9254-1.64325-2.57852.94572-1.79391 1.89143-3.69406 2.29202-5.83977.18461-1.00494.27169-2.13179.27169-3.30654 0-4.61365-1.3193-10.1129-2.1431-13.672l-.42061-1.70857c.0244 0-1.88186-7.48478-1.88186-7.48478-.16284-.5704-.53643-.94486-.85864-1.35589.74718-1.52743 1.44297-3.25951 1.96546-4.97765.53643-1.8418.72627-3.63223.72627-5.34079 0-2.68825-.49985-5.13789-.89869-7.11031l-2.48012-9.65312-.20987-.71234c-.62264-2.15704-2.03077-3.53644-3.88651-3.91176-1.04673-.19507-3.08969-.19507-4.95762 2.16575 0 0-.44761.61742-1.04587 1.34456-.14978-.30219-.54862-1.07896-.54862-1.07896-1.0598-1.5492-2.73876-2.43136-4.42033-2.31118-1.63194.0975-3.00262 1.06589-3.87431 2.59071-.18549-.27954-.7463-.98142-.7463-.98142-.84731-1.06329-2.0421-1.60929-3.25168-1.72947v-63.985002l-131.943027-.02351v3.403199z" fill="#fff"/><path d="m189.8593 204.39056c-.47373-1.22352-1.99158-4.06851-1.99158-4.06851 1.34456 1.50304 2.76401 2.59245 2.76401 2.59245-.27344.40058-.77243 1.47606-.77243 1.47606zm-6.05312 34.76088s.69579-1.81742 1.1852-4.13034c0 0 .65834.77504 1.35501.73846.67228-.0487 2.06822-1.55007 2.06822-1.55007s1.09637 1.42816 1.84354 2.20406c0 0-4.60842 1.80436-6.45197 2.73789zm3.33789-70.55886-.44848 1.07548-1.70421-2.86851c1.49347 1.57445 2.15269 1.79303 2.15269 1.79303zm-8.43222 40.60673v-14.92077c1.35675 2.27722 3.55036 4.49261 3.55036 4.49261-1.59449 4.24006-3.55036 10.42817-3.55036 10.42817zm-2.42962 24.6836c2.14311-3.67055 2.29202-7.19566 2.29202-7.19566.6984 1.7434 2.71699 4.42294 2.71699 4.42294-1.32018.70102-5.00901 2.77272-5.00901 2.77272zm2.42962-76.23991c.83425 2.17968 2.00552 3.82728 2.00552 3.82728-1.37069-.0357-1.44471 1.68244-2.00552 3.63223v-7.4595zm-16.55271 105.24682c-4.16953-1.86445-8.26854-3.24645-8.26854-3.24645 2.16661-.99362 4.90711-2.61597 4.90711-2.61597s.22467 3.88651.79681 4.32366c.57388.44761 2.69086.12017 2.69086.12017-.10014.38752-.12627 1.41859-.12627 1.41859zm-.18636-17.77885c-1.48041 2.5167-2.30335 5.89551-2.30335 5.89551-4.84529-1.82787-8.9678-2.82061-8.9678-2.82061 7.05023-1.23483 11.27113-3.0749 11.27113-3.0749zm-40.2279 15.3431c-.20465-.654-.61829-1.2836-.61829-1.2836.48854-.27779 1.35936-1.01713 1.35936-1.01713.49725.59129 1.00842 1.01713 1.00842 1.01713-1.17736.72888-1.74949 1.2836-1.74949 1.2836zm-11.39655-.0348c-.70449-.62961-1.78606-1.3106-1.78606-1.3106.85602-.51989 1.11379-1.13643 1.11379-1.13643.35007.32482 1.39594 1.04151 1.39594 1.04151-.48766.6296-.72366 1.40552-.72366 1.40552zm-37.904509-9.41276s-.553846-2.85457-2.441802-6.01743c0 0 4.489989 1.88796 11.457513 3.16285 0 0-5.304209 1.41509-9.015718 2.85457zm-2.503632 11.84504-.0897-1.38026s2.225839.38751 2.791872-.19333c.57823-.59391.547751-2.73701.64093-4.31147 0 0 2.160521 1.33062 4.913214 2.67692 0 0-4.783464 1.63455-8.256301 3.20813zm-19.117266-31.74082s1.760816-2.13179 3.000006-5.19624c0 0 .13672 4.5762 2.602902 8.39219 0 0-3.461541-2.07257-5.602908-3.19595zm2.939046-37.58151v17.00379c-2.231059-7.56921-3.874312-11.73702-3.874312-11.73702 2.79536-3.1463 3.874312-5.26677 3.874312-5.26677zm-.04355-37.05986.02961 10.16082c-1.04761-4.31147-1.246158-5.19536-2.38433-5.15965 1.954137-2.90857 2.35472-5.00117 2.35472-5.00117zm-11.864138 79.94485s1.05196-1.09115 1.855736-2.24238c0 0 1.30189 1.58839 2.029901 1.62496.642672.0252 1.420323-.77503 1.420323-.77503s.584326 2.50798 1.08331 4.06851c0 0-3.231644-1.4151-6.38927-2.67606zm2.216262-35.93474s-.753264 1.63628-1.800004 3.91176c0 0-.608709-1.16256-.797679-1.47606 0 0 1.04674-.79942 2.597683-2.4357zm2.978233-33.48594-1.644993 2.59071-.454572-.94485 2.099568-1.64586zm-9.903064 3.39013-2.653414-4.51612s1.757328 2.02206 3.194196 3.57301l-.540785.9431zm160.435308-4.46735-2.6151 4.46735-.44762-.88476c1.41946-1.54747 3.06271-3.58259 3.06271-3.58259zm-.49726 67.65204s5.14312-2.3373 9.41453-9.28911c2.39217-3.94921 3.31438-6.58869 3.21423-9.65312-.0862-3.05225-.99884-8.90159-1.39332-11.33733-.40146-2.44529-1.29579-6.8543-1.52134-7.86008-.24819-1.03977-1.28012-1.53702-2.34166-.40929-1.04586 1.17388-5.00552 6.00697-6.77504 8.64729 0 0-.7228-1.92714-1.37069-3.32047.77329.35095 3.76111-2.28679 5.21801-3.91175 1.44731-1.59797 4.89492-5.71525 5.86851-10.76689.97097-5.07431-1.49608-13.98897-2.24326-17.35298-.74717-3.38055-1.49608-6.27431-1.79303-7.14689-.28389-.89696-1.34456-1.68157-2.59072 0 0 0 2.49144-4.44471 3.63658-8.34514 1.17039-3.95879.38752-7.79999-.2238-10.81393-.59826-3.0418-2.2807-8.78141-2.65428-10.14947-.38491-1.36807-1.35676-2.24064-2.7257-.56952-1.32191 1.68157-4.38462 5.70393-4.38462 5.70393s-2.39216-4.88187-2.91379-5.70393c-.54863-.79855-1.64499-1.19739-2.31814.16894-.68535 1.42903-2.16749 5.02642-2.16749 5.02642s-2.86328-3.85255-4.30799-5.54718c-1.00842-1.24616-2.04296-.36313-2.31814.63048-.22206.96837-1.71814 9.91789-1.71814 9.91789v-75.015258l-124.956355-.0122v77.947498s-.63048-4.68767-.842964-6.08187c-.203774-1.41509-1.020609-5.35385-1.218287-6.55124-.232511-1.21045-1.265313-2.04818-2.318142-.83599-1.095505 1.17388-4.203488 5.45138-4.203488 5.45138s-1.818288-3.97272-2.366914-5.13701c-.591293-1.10073-1.754719-.90741-2.272865.10972-.479826.99449-2.877215 5.66997-2.877215 5.66997s-4.04064-5.4749-4.832229-6.27432c-.802906-.75239-1.817418-.48505-2.255449 1.01626-.427577 1.45341-1.511755 5.34253-2.178814 8.24849-.634834 2.85719-1.419453 7.53182-1.419453 9.32398 0 1.73382 1.794776 7.81134 4.404653 11.87026 0 0-.71582-1.09028-1.577072-1.018-1.17562.17068-1.307988 1.87664-1.818289 3.98491-.473731 2.11872-1.244417 4.97852-2.316402 10.24443-1.065024 5.24587-1.570105 8.42964-.984909 11.1553.568651 2.70044 1.833093 5.75443 4.614519 9.31528 2.7971 3.55821 5.630778 5.4244 6.515539 5.48448l-1.315825 3.2839s-1.394192-1.98898-3.262993-4.3376c-1.879249-2.3373-3.362271-4.13034-3.958785-4.67374-.56691-.54514-1.744271-.54514-2.067349 1.25835-.349202 1.84354-2.167489 11.6282-2.518437 15.43193-.347461 3.80117.09492 7.08333.674892 8.5367.595646 1.45341 1.887086 4.27577 4.619746 7.59538 2.746595 3.30393 4.602331 4.71031 7.066775 6.03136 0 0 1.190425 2.20233 3.550365 3.80116l.997966 3.29435s-9.478082-1.51438-10.494379-1.51438c-1.026707 0-1.725108.6061-.939624 1.41946.403193.40929 1.08331 1.91147 2.498405 4.40813 1.375907 2.49144 3.695797 6.61046 6.599135 10.97156 2.870247 4.3585 4.719886 6.63658 7.498723 8.28506 2.791003 1.65544 6.842968 3.1106 11.855438 3.83774 5.039484.73846 8.5263.25341 9.734147-.0984 1.233962-.32569 1.786939-.32569 1.973299-.32569.224673 0 .734979-.56953.734979-.56953s.833379-.1672.886501-.95443c.03658-.79158.07315-1.15124.07315-1.15124s3.175041 1.46474 5.635998 2.5794l-8.41482 5.87461s-1.26967 1.44035.413643 2.15443c1.692888.71496 7.645004 2.50538 11.918993 3.46416 4.295798.93266 8.076031 2.03513 15.006147 0 0 0-1.077212 1.645-1.611903 2.55501-.540788.84731-.672278 1.53702-.554716 1.8418.08882.31437.361389 1.28273 4.875767.45893 4.465608-.76371 7.698088-1.81567 10.388138-3.98403 2.69608-2.1553 3.57388-4.26271 3.24384-7.86008 0 0 1.40638 2.54195 4.84267 2.62642 3.42759.0853 4.80959-1.73034 5.45226-2.66387 0 0-.29348 2.84761.53991 4.61539.79071 1.79043 2.54021 3.36575 4.99507 4.73556 2.47228 1.33324 4.91931 2.03339 6.3762 2.3016 1.4569.28911 6.58346 1.19739 6.73325-.38839.14978-.88477-2.24849-4.1913-2.24849-4.1913s3.94137 1.16255 7.20437 1.16255c3.17417 0 6.73673-.87257 10.56228-1.88883 3.836-1.07808 8.42006-2.45747 9.16635-2.71175.7733-.3283 1.43164-1.38027.12279-2.31641-1.26967-1.00232-5.56547-4.13991-8.21885-5.78578 0 0 3.91263-1.59971 5.7048-2.57939 0 0-.36227 1.88795 2.10479 2.67518 2.45225.78637 5.34166 1.12599 10.89753.46068 5.52976-.64355 11.036-2.70131 14.02473-4.97853 2.98868-2.21451 7.11031-9.25254 8.66823-11.79453 1.53353-2.50799 5.55501-9.50861 6.05399-10.54924 0 0 1.12076-1.05457-.17503-1.57445-.80988-.27867-11.25985 1.5971-11.25985 1.5971s.97098-2.7257 1.02148-3.29435c0 0 2.19187-1.40465 3.63745-3.88651z" fill="url(#g)" fill-rule="nonzero"/><path d="m116.2088 257.06337h.00073c3.46155-2.68912 6.93615-5.26939 9.99361-6.96402 3.03135-1.73208 5.98433-3.30654 8.78752-3.88825 2.7762-.52075 6.59392-1.10072 10.53095-1.71989 3.85952-.58171 8.44358-1.53788 12.56428-2.88331 4.19914-1.33324 7.84703-2.98868 10.537-5.62991 2.69086-2.59332 4.77301-5.57069 5.26851-9.76202.10015-.75065.0375-2.42264.0375-2.42264v-152.720921h-115.423789v154.440301c.01307 2.25023 1.282727 6.4868 4.783464 9.91789 3.436289 3.44151 7.927169 5.29463 12.835163 6.71148 4.901021 1.46473 11.575928 2.57939 15.050535 3.05312 3.456321.44586 6.80552.6775 11.290297 2.77184 4.47257 2.13179 9.11149 5.42527 13.74425 9.0958z" fill="url(#f)" fill-rule="nonzero"/><path d="m249.222 97.4079h-199.4657v69.8941h199.4657z" fill="#75c5f0" fill-rule="nonzero" transform="matrix(.73730137 0 0 .73730137 5.535437 5.647286)"/><path d="m246.248 125.039h-194.1271v13.979h194.1271z" fill="#fff" transform="matrix(.73730137 0 0 .73730137 5.535437 5.647286)"/><g fill-rule="nonzero"><g fill="url(#c)" transform="matrix(.73730137 0 0 .73730137 5.535437 5.647286)"><path d="m212.6 333.931s3.71457-9.52795 7.5-13.4846c3.84921-3.87874 9.81496-6.83386 20.3894-12.5008l-16.3677 18.8244s-8.00787 5.50157-9.29291 10.8236l-3.83504 4.14094.32126-2.74606s2.90669-1.64055 3.31181-2.39646c.43937-.77126.26575-2.10118-2.02677-2.66102z"/><g><path d="m239.694 311.608-1.707 6.784-6.569 3.432z"/><path d="m250.302 328 10.71-7.327-8.732 1.531z"/><path d="m48.3295 176.092-3.23622 42.8563s-4.5685-6.22677-5.38701-17.0846c-.843307-11.4661 8.62323-25.7717 8.62323-25.7717z"/><path d="m48.5327 213.796v.009c.01535-.005 2.03504-.68032 2.55118 1.95354 0 0 4.00157-4.46575 4.70315-14.1094.668504-9.60827-5.51339-23.0291-5.51339-23.0291l-1.74094 35.1756z"/><path d="m56.4555 183.366 1.291-6.042-2.4319 3.578v.002z"/><path d="m60.4075 175.846-2.48268 12.1854s1.96772 4.7811 1.78937 9.88937c-.218504 5.20748-1.39252 11.7602-7.07953 19.7114.0189-.0154 6.38504-5.38819 10.1303-17.9693 2.02677-6.91654-2.35748-23.8169-2.35748-23.8169z"/><path d="m40.4917 184.533 1.4044-2.973-2.9481-3.991v.003z"/><path d="m36.4547 174.776s-3.59882 16.9524-3.2622 21.4689c.415748 4.45157 3.10866 9.90591 4.13976 12.1051 0 0-3.30827-11.7921 1.61457-20.2346z"/><path d="m35.7969 218.177v.004l2.23701 14.9421 3.13346-6.17598s-3.88346-6.68386-5.37047-8.76969z"/><path d="m38.9469 259.175c-6.32835-14.0457-2.88898-21.0921-2.88898-21.0921l-2.86535-21.7169s-2.70945 10.4646-3.49606 14.2252c-.778346 3.6815-1.76575 9.05197 2.15433 17.498 3.94606 8.5063 7.09606 11.0858 7.09606 11.0858z"/><path d="m47.0811 222.741-1.91102 38.2264c-.0035-.0118-.388583-1.11732-1.95827-.95433 0 0-3.75945-8.59134-3.50551-17.3469.186614-6.47008 7.3748-19.9252 7.3748-19.9252z"/><path d="m48.1205 263.714v.0272c.02126-.0165 4.04173-3.07559 6.58583-10.4646 2.54173-7.47283.196063-18.0189-1.69016-23.3409-1.84016-5.38583-4.11142-10.6287-4.11142-10.6287l-.784252 44.4071z"/><path d="m57.8551 231.202 1.6406-11.336-3.8032 6.094v.001z"/><path d="m58.8035 258.107h.0012c3.8315-4.40197 7.16929-13.6169 7.57323-18.7925.364961-5.12362-3.35197-18.1996-4.22126-20.8772l-2.44252 18.8398c2.15433 4.8815.99685 14.8323-2.27953 19.6441v.001c.01181.004 1.10787.26693 1.3689 1.18465z"/><path d="m28.5307 265.153 5.37047 20.4189s-1.55906 5.35748 3.05906 17.263c0 0-6.20551-5.41772-9.42638-16.3264-1.85551-6.27402.99685-21.3555.99685-21.3555z"/><path d="m35.178 279.856 2.661-7.555-7.1693-9.612v.001z"/><path d="m42.4441 269.062 2.08465 40.6417s-2.87126-3.03898-5.30551-9.90827c-2.4815-6.89528-2.92205-13.2874-.57874-20.1378 2.33622-6.88346 3.79961-10.5957 3.79961-10.5957z"/><path d="m45.678 268.406v.0189l1.0878 42.5091s3.50787-3.02244 5.59252-9.61063c2.06929-6.60236 1.25787-13.8307-1.5626-21.3839-2.86181-7.5-5.10354-11.5087-5.11772-11.5335z"/><path d="m54.6142 280.514.7004-14.833-3.7489 7.62v.001z"/><path d="m56.3882 303.353v.0413c.0083-.006.553937-.33425 2.07874.68976 0 0 2.54764-4.53425 4.35591-10.9724 1.9689-6.94961 1.46929-10.8591-1.37598-18.9874-2.80512-8.11654-4.51654-11.7969-4.51654-11.7969l-.474803 27.4996s1.06417 3.84331 0 7.83543l-.06732 5.69055z"/><path d="m251.485 176.158 3.22441 42.822s4.56378-6.16063 5.38819-17.0008c.91417-11.4839-8.6126-25.8213-8.6126-25.8213z"/><path d="m249.456 178.62 1.75748 35.185s-2.04213-.57638-2.53346 2.10354c0 0-3.9189-4.5-4.56142-14.1461-.70748-9.59291 5.3374-23.1425 5.3374-23.1425z"/><path d="m243.411 183.465 1.162-2.463-2.447-3.548z"/><path d="m239.49 175.959 2.29843 12.0567s-1.80591 4.89449-1.63701 10.0358c.18425 5.14252 1.33228 11.7449 7.02756 19.6465 0 0-6.43819-5.34094-10.1031-17.8724-2.07874-7.01339 2.41417-23.8665 2.41417-23.8665z"/><path d="m259.322 184.403-1.35-2.925 2.939-4.056z"/><path d="m263.274 174.776s3.73583 17.0669 3.3626 21.5988c-.37087 4.45512-3.15709 9.74409-4.27441 11.9752 0 0 3.34606-11.8748-1.51772-20.25z"/><path d="m263.883 218.241-2.1626 14.7189-2.97283-6.04606s3.61417-6.62126 5.13543-8.67283z"/><path d="m260.844 259.271c.0201-.0154 3.21969-2.57126 7.09488-11.0551 3.95197-8.48858 2.95512-13.8106 2.1626-17.5228-.77717-3.74646-3.61535-14.2098-3.61535-14.2098l-2.66929 21.7488s3.24331 6.9815-2.97283 21.039z"/><path d="m252.718 222.971 1.90748 38.0787s.37323-1.15276 1.95945-.97087c0 0 3.85276-8.5252 3.58228-17.2807-.20315-6.4878-7.44921-19.8272-7.44921-19.8272z"/><path d="m251.587 263.657-.74409-44.4449s-2.27835 5.28543-4.18819 10.624c-1.79173 5.32205-4.18937 15.9177-1.65709 23.3421 2.59488 7.43858 6.56811 10.4634 6.58937 10.4787z"/><path d="m241.858 231.133-1.622-11.314 3.781 6.108z"/><path d="m240.974 258.057c.27283-.9189 1.37126-1.13386 1.37126-1.13386-3.25984-4.81181-4.40906-14.5205-2.24528-19.5295l-2.50157-18.8232c-.87992 2.67638-4.49291 15.7028-4.12323 20.8594.40748 5.15669 3.68268 14.276 7.49882 18.6272z"/><path d="m271.08 265.318-5.13425 20.4189s1.23071 5.66811-3.03898 17.2299c0 0 6.44882-6.60236 9.40512-16.3276 1.87677-6.17598-1.23189-21.3213-1.23189-21.3213z"/><path d="m269.102 262.689-4.56024 17.1331-2.51457-7.60276s2.02441-2.89488 2.93622-4.04291c.91417-1.1315 4.13858-5.4874 4.13858-5.4874z"/><path d="m257.362 269.098-2.06102 40.5709s2.70354-2.89134 5.16969-9.77244c2.43543-6.83504 3.00827-13.2567.60827-20.1213-2.3315-6.86575-3.71693-10.6772-3.71693-10.6772z"/><path d="m254.189 268.521-1.21772 42.2657s-3.39449-2.84173-5.43898-9.37913c-2.0752-6.58819-1.28386-13.8154 1.57323-21.339 2.81929-7.55433 5.08346-11.5476 5.08346-11.5476z"/><path d="m245.198 280.514-.707-14.833 3.734 7.571z"/><path d="m242.855 262.293.49016 27.5173s-1.08307 3.82795 0 7.81772l.0661 5.71535s-.5563-.29173-2.04213.70866c0 0-2.62087-4.53543-4.4126-10.9913-1.95945-6.94606-1.48583-10.839 1.37126-18.9709 2.85236-8.08228 4.52717-11.7969 4.52717-11.7969z"/><path d="m59.4957 308.289v.001l15.7583 18.1323c9.25984 6.72165 9.66496 11.139 9.66496 11.139 1.26614 1.24843 3.6815 4.07598 3.6815 4.07598l-.186614-2.72835c-2.92087-1.56142-3.31063-1.85787-3.49488-3.18898-.20315-1.34764 2.15433-1.72441 2.15433-1.72441s-3.54921-10.3157-8.82756-14.9799c-5.29016-4.67717-18.7287-10.7173-18.75-10.7268z"/><path d="m59.8925 311.507v.001l1.97598 6.76772c3.62362 1.72559 6.24094 3.54803 6.24094 3.54803l-8.21693-10.3169z"/><path d="m49.3193 316.434v.001c.02008.0189 13.6181 12.9012 19.5 18.352 5.88661 5.43543 15.2882 14.3539 15.2882 14.3539-.859843-11.7933-8.32795-18.6272-15.4902-23.5051-7.16575-4.87323-19.2803-9.19488-19.298-9.20197z"/><path d="m50.6858 320.264v.001c2.62677 6.80079 6.5622 15.0626 8.04921 17.0823 1.41969 2.02205 6.65551 6.68386 13.4976 10.4303 6.87638 3.69449 9.19724 3.30118 9.19724 3.30118l-30.7441-30.815z"/><path d="m49.3937 327.9-1.9772-5.696-8.3941-1.362z"/><path d="m36.0579 321.513v.001c5.43071 9.47717 12.3567 19.3488 14.2157 21.1535 1.8815 1.82598 5.32913 4.30512 12.3626 7.09488 7.09488 2.77795 13.0146 3.43937 13.0146 3.43937s-7.82835-3.07677-12.8858-6.39213c-5.12717-3.36732-8.74134-5.71772-11.7827-15.2598z"/><path d="m93.2209 338.2c1.86024 1.16929 9.79843 4.94528 9.79843 4.94528 6.57165-2.05394 12.2882-2.44724 12.2882-2.44724l-22.0866-2.49803z"/><path d="m92.2252 350.242c.02008-.008 10.7575-4.81417 18.6555-6.4878 7.95827-1.74331 19.7303-3.05551 29.9409 5.52047 0 0-28.6559.4878-35.2524.63661-6.54685.21378-13.324.33071-13.3441.33071z"/><path d="m95.9917 351.869 44.7035.44055s-3.24449 2.89134-12.0756 4.76457c-8.78504 1.92402-13.1185 1.65827-16.4539.78898-3.3189-.87047-14.3976-5.13898-16.174-5.99409z"/><path d="m91.2886 361.675v.001l14.5004-2.46496c-3.53858-.97086-7.0878-2.70827-7.0878-2.70827-1.17165.86693-7.39488 5.16024-7.4126 5.17205z"/><path d="m88.526 363.893c.0189-.002 12.261-1.4811 22.448-3.28346 9.51969 1.24606 24.0307-1.29921 30.802-4.76575v2.49449s-3.04843 3.02362-10.4894 6.47244c-7.47283 3.45118-12.2031 4.68307-16.9441 4.45276-4.83898-.17953-18.4358-3.10276-25.8165-5.37047z"/><path d="m91.363 336.15c.02008-.007 11.9717-3.78071 17.6433-4.60039 5.71772-.83858 16.5213 0 26.9173 8.22992z"/><path d="m122.15 374.322v.001c.0201 0 5.52165-.0685 9.2315-2.0374 3.74173-2.03622 6.15-4.69724 7.14449-8.22756 0 0-6.65551 3.74409-12.2634 4.92756s-3.20079 3.9248-4.1126 5.33622z"/><path d="m163.662 339.827s5.79685-4.82835 13.5154-7.04764c7.75039-2.16732 11.5713-3.03661 30.9969 3.37087l-44.5122 3.67677z"/><path d="m184.744 340.598 21.3673-2.39764-9.45945 5.07402s-5.06811-1.8189-11.9079-2.67638z"/><path d="m158.816 349.355s6.26693-5.32323 13.9606-6.45709c7.62638-1.16339 17.8642-.12992 34.2803 7.22717z"/><path d="m159.22 352.411 44.426-.47598s-8.54764 3.81142-14.9846 5.66339c-6.50315 1.80945-12.9295.83976-19.9902-1.09606-7.08661-1.89094-9.45118-4.09134-9.45118-4.09134z"/><path d="m157.952 355.747v2.49331c6.70512 5.81811 19.6441 11.335 26.5713 11.1543 6.97441-.16181 26.7909-5.46969 26.7909-5.46969l-22.5661-3.31535c-18.5232 1.80354-29.5287-4.56732-29.5287-4.56732l-1.26732-.29528z"/><path d="m161.296 364.058v.004c.0284.13819.96496 4.59094 5.78858 7.43386 4.91457 2.82756 10.4209 2.82756 10.4209 2.82756-1.72323-2.75906-4.0878-5.23937-4.0878-5.23937-7.03937-2.08583-12.1217-5.02559-12.1217-5.02559z"/><path d="m194.053 359.211s3.71575-1.26378 6.9248-2.59843l7.80354 5.24291s-13.7504-2.31732-14.7283-2.64449z"/><path d="m215.606 349.349v.006l34.7976-32.9209s-8.54528 3.18898-14.6976 6.42638c-6.18307 3.23622-12.0567 7.85079-15.8787 13.5343-3.72283 5.64567-4.20709 12.7335-4.22126 12.9543z"/><path d="m218.055 351.294 31.0299-31.0311s-2.43071 6.22677-5.35276 12.3047c-2.6374 5.57008-6.23504 8.95394-11.7437 12.6319-4.96063 3.23504-11.5878 5.99528-13.9335 6.09449z"/><path d="m248.851 331.55 14.8299-10.037s-4.11969 7.34173-8.37992 13.3535c-4.18819 5.99646-6.21614 9.52795-14.5937 13.4705-8.30787 3.89291-16.9606 4.73031-16.9606 4.73031s5.1-1.1315 12.6354-5.89606c7.5685-4.7811 8.85118-6.47244 12.4689-15.6213z"/><path d="m154.844 355.747v-6.03189c0-3.36496-2.27953-6.20669-5.07638-6.20669-2.80512 0-5.09291 2.84173-5.09291 6.20669v6.03189c0 3.3815 2.2878 6.17598 5.09291 6.17598 2.79685 0 5.07638-2.79449 5.07638-6.17598z"/></g></g><path d="m77.817072 199.16383 6.346594-13.69987 5.2807 13.69987h-11.627316zm30.571318 16.07029c-1.15211-1.13991-2.81017-3.06444-3.47025-4.73644-.60958-1.64673-3.22033-9.18028-5.029037-14.44882-1.813939-5.29289-4.274026-12.19423-5.936434-17.00291-1.661538-4.73469-3.898702-11.10656-4.571851-13.09203-.634831-1.96373-1.55443-.33876-2.015966.66531-.431063.98142-9.012182 20.52802-11.552407 26.28162-2.541079 5.79972-6.433677 14.5446-8.18751 17.52543-1.713791 3.01568-3.762847 4.31061-5.3434 5.03775-1.564878.6897-2.35472.32743-2.748335.79942 0 0-.235124.57997 0 .96923 0 0 .16894.38665 1.183457.38665h16.360275s2.197099.25515 2.148334-.96924c-.08012-1.5135-1.855736-.85863-3.226416-1.75471-1.624098-1.09202-2.696083-2.47142-2.76488-3.80379-.101017-2.09608 1.238319-4.31147 2.317271-6.47983h15.599159c.896957 2.46967 1.917566 3.98404 1.382005 6.49203-.566041 2.55675-2.390427 4.43251-3.226416 4.75995-.852541.36401-.734979 1.44122.249931 1.44122.984039 0 16.79477.061 17.95299 0 1.18956-.0113 2.01249-.91002.87954-2.07083z" fill="#28166f"/><path d="m76.788389 198.19206 6.346594-13.69898 5.281578 13.69898h-11.628202zm30.572201 16.07111c-1.15211-1.13991-2.81016-3.06445-3.47025-4.73644-.60958-1.64673-3.22032-9.18117-5.029906-14.44963-1.813068-5.29203-4.273155-12.19334-5.935563-17.00202-1.661538-4.73556-3.898702-11.10656-4.571851-13.09293-.634831-1.96284-1.5553-.33875-2.015966.66618-.431064.98143-9.012182 20.52802-11.553292 26.28074-2.540209 5.79972-6.432807 14.5446-8.18751 17.52632-1.712921 3.01568-3.761977 4.30973-5.3434 5.03687-1.564008.68971-2.353849.32744-2.747465.80029 0 0-.235124.57911 0 .96837 0 0 .168941.38752 1.183457.38752h16.360275s2.196229.25515 2.147464-.97011c-.07925-1.5135-1.854866-.85864-3.226416-1.75385-1.623221-1.09288-2.695213-2.47228-2.76401-3.80465-.101016-2.09521 1.23832-4.3106 2.317272-6.47896h15.598274c.897826 2.4688 1.918436 3.98404 1.382875 6.49203-.566041 2.55675-2.391297 4.43164-3.227294 4.75995-.851671.36313-.734109 1.44034.250801 1.44034.984039 0 16.794765.061 17.952995 0 1.18955-.0113 2.01161-.91001.87953-2.06995z" fill="url(#e)"/><path d="m187.563 242.568 7.063 18.594h-15.678z" fill="#f8c300" transform="matrix(.73730137 0 0 .73730137 5.535437 5.647286)"/><path d="m138.24147 200.19123 6.35182-13.71034 5.20668 13.71034h-11.55852zm30.63834 16.09638c-.99536-.7881-2.68825-2.79883-3.51031-4.65282-.82293-1.91234-3.3762-9.49379-5.00726-14.25285-1.64326-4.8331-10.26361-29.47753-10.64848-30.59395-.38752-1.0659-1.03541-1.14775-1.90711.82467-.84731 1.96197-4.90538 11.37214-7.84702 17.96-2.92424 6.64964-6.13499 14.14483-8.31116 18.68712-2.20059 4.54311-3.72453 9.65489-8.78753 12.17417v-36.26129c3.94224 0 5.2868 1.41597 5.44965 3.6209.15501 2.27548.60435 4.43165 2.51495 4.43165 1.84877 0 1.4447-5.84935 1.52656-9.04706.0993-3.47547.0418-9.66447.0418-11.05694 0-1.41683-.34223-3.42758-1.56836-3.49986-1.28273-.074-2.16749 1.64761-2.29115 2.87025-.0688 1.23483.63571 5.30334-5.60378 5.30334v-13.2131s6.29435-.70276 10.11725-.70276c3.78723 0 8.4087 1.50218 10.57445 2.4958 2.17794.95878 5.481 3.24644 6.28738 2.77271.61307-.33875-1.45515-5.30334-2.5611-8.57334-1.11118-3.21074-2.38171-6.58955-2.87809-7.72684-.49985-1.18781-1.23222-1.58665-3.04006-.24296-1.85487 1.27228-4.73295 2.52975-8.63166 2.52975-3.91002.0993-12.64443-.19071-15.87263-.19071-3.23251 0-9.42234.28999-11.81886.28999-2.36779 0-7.841793-.24383-11.70916-1.71989-3.855157-1.45428-9.303048-5.78927-10.50566-7.13383-1.200872-1.34368-2.447029-.0366-1.30102 3.08796 1.183457 3.16111 3.885637 7.67981 8.936462 11.38519 5.082151 3.77852 10.948038 4.16517 18.802068 3.33005v59.44101c0 2.70131-.9553 4.76082-4.15646 6.38317-3.15676 1.62148-3.96662 2.60378-2.272 3.17243 1.61365.53381 7.34805 1.68418 9.86996 3.03832 1.74949.92047 3.5495 3.97359 6.13412 5.79188 2.61074 1.85313 6.22033 3.35357 11.54024 1.07721 5.24848-2.24064 6.73151-4.63977 7.07462-5.20755.3283-.56865.72105-2.02293-2.40001-1.73033-3.87606.32481-7.10247-1.4421-7.89495-2.77533-1.39419-2.36256-3.16371-5.14659-4.36459-5.82584v-3.92395h15.67407c1.52569 0 1.71466-2.0569-.43803-2.25284-2.19013-.21771-4.49957-2.27459-4.49957-4.6624 0-2.33731 2.48448-6.10451 2.48448-6.10451h15.38666s1.70683 3.23425 1.66938 5.28245c-.10015 2.31118-1.86967 5.08389-3.03919 5.6804-1.15734.60348-1.38462 1.75472.20028 1.75472h17.85811c1.09898 0 1.72076-1.22351.72279-2.03426z" fill="#28166f"/><path d="m137.02798 199.17415 6.35182-13.71034 5.20668 13.71034h-11.55853zm30.63833 16.09639c-.99535-.7881-2.68824-2.79884-3.5103-4.65283-.82294-1.91234-3.3762-9.49379-5.00727-14.25285-1.64325-4.8331-10.2636-29.47753-10.64847-30.59395-.38752-1.06589-1.03542-1.14775-1.90711.82467-.84732 1.96198-4.90538 11.37214-7.84703 17.96-2.92424 6.64965-6.13499 14.14483-8.31116 18.68712-2.20058 4.54311-3.72452 9.65489-8.78752 12.17418v-36.2613c3.94224 0 5.2868 1.41597 5.44964 3.62091.15501 2.27547.60435 4.43164 2.51495 4.43164 1.84877 0 1.44471-5.84935 1.52656-9.04705.0993-3.47548.0418-9.66448.0418-11.05694 0-1.41684-.34223-3.42759-1.56837-3.49986-1.28272-.074-2.16749 1.64761-2.29115 2.87024-.0688 1.23484.63571 5.30335-5.60377 5.30335v-13.21311s6.29435-.70276 10.11725-.70276c3.78723 0 8.4087 1.50218 10.57445 2.4958 2.17794.95878 5.48099 3.24645 6.28738 2.77272.61306-.33876-1.45516-5.30335-2.56111-8.57334-1.11118-3.21075-2.38171-6.58956-2.87808-7.72685-.49986-1.18781-1.23223-1.58665-3.04007-.24296-1.85486 1.27228-4.73295 2.52975-8.63166 2.52975-3.91002.0993-12.64442-.19071-15.87262-.19071-3.23251 0-9.42234.28999-11.81887.28999-2.36778 0-7.841788-.24383-11.709155-1.71989-3.855157-1.45428-9.303047-5.78927-10.50566-7.13382-1.200872-1.34369-2.447027-.0366-1.30102 3.08795 1.183458 3.16111 3.885638 7.67981 8.936462 11.38519 5.082152 3.77852 10.948043 4.16517 18.802073 3.33005v59.44102c0 2.70131-.9553 4.76082-4.15647 6.38317-3.15675 1.62148-3.966619 2.60378-2.27199 3.17243 1.61364.53381 7.34805 1.68418 9.86996 3.03832 1.74949.92047 3.54949 3.97359 6.13412 5.79188 2.61074 1.85313 6.22032 3.35357 11.54024 1.07721 5.24848-2.24064 6.7315-4.63977 7.07461-5.20755.32831-.56865.72105-2.02293-2.4-1.73033-3.87606.32481-7.10248-1.4421-7.89495-2.77533-1.3942-2.36256-3.16372-5.14659-4.3646-5.82584v-3.92395h15.67407c1.52569 0 1.71466-2.0569-.43802-2.25284-2.19013-.21771-4.49958-2.2746-4.49958-4.66241 0-2.3373 2.48448-6.10451 2.48448-6.10451h15.38667s1.70682 3.23425 1.66937 5.28245c-.10014 2.31118-1.86967 5.0839-3.03919 5.68041-1.15733.60348-1.38461 1.75472.20029 1.75472h17.8581c1.09899 0 1.72076-1.22352.72279-2.03426z" fill="url(#d)"/></g><g fill-rule="evenodd" transform="matrix(.8220288 0 0 .8220288 26.068486 3.15061)"><path d="m124.691 65.2335-15.459-11.237-15.4714 11.237 5.8973-18.1654-15.4229-11.237h19.088l5.909-18.1654 5.897 18.1654h19.088l-15.423 11.237z" fill="url(#a)"/><path d="m105.103 36.4098-1.77992 1.29567h-19.0878v-3.74882h19.0878zm0 0-.42047 1.29567h-1.35945zm5.90906-19.3228v1.15748l-5.90906 18.1654-3.55984-1.15748 5.90906-18.1654zm-3.55984 0 1.7811-5.47677 1.77874 5.47677zm7.67717 20.6185-1.77992-1.29567-5.89724-18.1654 3.55984-1.15748 5.89724 18.1654zm0 0h-1.35827l-.42165-1.29567zm20.1862-.366142-1.09843.366142h-19.0878v-3.74882h19.0878l1.09843 3.38268zm-1.09843-3.38268h5.74016l-4.64173 3.38268zm-17.2028 13.6902.6815-2.08701 15.4228-11.237 2.19685 3.01654-15.4228 11.237-2.87835-.929528zm0 0-.41693-1.28622 1.09843-.800787-.6815 2.08701zm6.57874 19.1031-.6815-.937795-5.89724-18.1654 3.55984-1.15748 5.89724 18.1654-2.87835 2.09528zm2.87835-2.09528 1.77874 5.48031-4.65709-3.38504 2.87835-2.09528zm-18.3378-12.1748h2.19685l15.4594 11.237-2.19685 3.03307-15.4594-11.237zm0 0 1.09843-.797244 1.09843.797244h-2.19685zm-16.1528 12.1748.681496-.937795 15.471304-11.237 2.19685 3.03307-15.471304 11.237-2.87835-2.09528zm2.87835 2.09528-4.65591 3.3815 1.77756-5.47677 2.87835 2.09528zm5.89724-21.1902.6815 2.08701-5.897244 18.1654-3.55984-1.15748 5.89724-18.1654 2.878354-.929528zm0 0 1.09843.799606-.41693 1.2874-.6815-2.08701zm-16.5213-11.6031 1.09843.366142 15.4228 11.237-2.19685 3.01654-15.4228-11.237 1.09843-3.38268zm-1.09843 3.38268-4.64173-3.38268h5.74016z" fill="#214b81" fill-rule="nonzero"/></g><g transform="matrix(.56312391 0 0 .56312391 9.34767 21.507095)"><path d="m109.232 53.9965-15.4714 11.237 5.8973-18.1654-15.4229-11.237h19.088l5.909-18.1654 5.897 18.1654h19.088l-15.423 11.237 5.897 18.1654z" fill="url(#a)"/><path d="m105.103 36.4098-1.77992 1.29567h-19.0878v-3.74882h19.0878zm0 0-.42047 1.29567h-1.35945zm5.90906-19.3228v1.15748l-5.90906 18.1654-3.55984-1.15748 5.90906-18.1654zm-3.55984 0 1.7811-5.47677 1.77874 5.47677zm7.67717 20.6185-1.77992-1.29567-5.89724-18.1654 3.55984-1.15748 5.89724 18.1654zm0 0h-1.35827l-.42165-1.29567zm20.1862-.366142-1.09843.366142h-19.0878v-3.74882h19.0878l1.09843 3.38268zm-1.09843-3.38268h5.74016l-4.64173 3.38268zm-17.2028 13.6902.6815-2.08701 15.4228-11.237 2.19685 3.01654-15.4228 11.237-2.87835-.929528zm0 0-.41693-1.28622 1.09843-.800787-.6815 2.08701zm6.57874 19.1031-.6815-.937795-5.89724-18.1654 3.55984-1.15748 5.89724 18.1654-2.87835 2.09528zm2.87835-2.09528 1.77874 5.48031-4.65709-3.38504 2.87835-2.09528zm-18.3378-12.1748h2.19685l15.4594 11.237-2.19685 3.03307-15.4594-11.237zm0 0 1.09843-.797244 1.09843.797244h-2.19685zm-16.1528 12.1748.681496-.937795 15.471304-11.237 2.19685 3.03307-15.471304 11.237-2.87835-2.09528zm2.87835 2.09528-4.65591 3.3815 1.77756-5.47677 2.87835 2.09528zm5.89724-21.1902.6815 2.08701-5.897244 18.1654-3.55984-1.15748 5.89724-18.1654 2.878354-.929528zm0 0 1.09843.799606-.41693 1.2874-.6815-2.08701zm-16.5213-11.6031 1.09843.366142 15.4228 11.237-2.19685 3.01654-15.4228-11.237 1.09843-3.38268zm-1.09843 3.38268-4.64173-3.38268h5.74016z" fill="#214b81" fill-rule="nonzero"/></g><g fill-rule="evenodd" transform="matrix(.56312391 0 0 .56312391 99.34767 21.507097)"><path d="m99.6579 47.0681-15.4229-11.237h19.088l5.909-18.1654 5.897 18.1654h19.088l-15.423 11.237 5.897 18.1654-15.459-11.237-15.4714 11.237z" fill="url(#a)"/><path d="m105.103 36.4098-1.77992 1.29567h-19.0878v-3.74882h19.0878zm0 0-.42047 1.29567h-1.35945zm5.90906-19.3228v1.15748l-5.90906 18.1654-3.55984-1.15748 5.90906-18.1654zm-3.55984 0 1.7811-5.47677 1.77874 5.47677zm7.67717 20.6185-1.77992-1.29567-5.89724-18.1654 3.55984-1.15748 5.89724 18.1654zm0 0h-1.35827l-.42165-1.29567zm20.1862-.366142-1.09843.366142h-19.0878v-3.74882h19.0878l1.09843 3.38268zm-1.09843-3.38268h5.74016l-4.64173 3.38268zm-17.2028 13.6902.6815-2.08701 15.4228-11.237 2.19685 3.01654-15.4228 11.237-2.87835-.929528zm0 0-.41693-1.28622 1.09843-.800787-.6815 2.08701zm6.57874 19.1031-.6815-.937795-5.89724-18.1654 3.55984-1.15748 5.89724 18.1654-2.87835 2.09528zm2.87835-2.09528 1.77874 5.48031-4.65709-3.38504 2.87835-2.09528zm-18.3378-12.1748h2.19685l15.4594 11.237-2.19685 3.03307-15.4594-11.237zm0 0 1.09843-.797244 1.09843.797244h-2.19685zm-16.1528 12.1748.681496-.937795 15.471304-11.237 2.19685 3.03307-15.471304 11.237-2.87835-2.09528zm2.87835 2.09528-4.65591 3.3815 1.77756-5.47677 2.87835 2.09528zm5.89724-21.1902.6815 2.08701-5.897244 18.1654-3.55984-1.15748 5.89724-18.1654 2.878354-.929528zm0 0 1.09843.799606-.41693 1.2874-.6815-2.08701zm-16.5213-11.6031 1.09843.366142 15.4228 11.237-2.19685 3.01654-15.4228-11.237 1.09843-3.38268zm-1.09843 3.38268-4.64173-3.38268h5.74016z" fill="#214b81" fill-rule="nonzero"/></g></g></svg>